:FULLY-SPECIFIED
:DEGREES
1092
root 3.86253 16.4923 -2.62253 102.932 -93.1347 -99.3823
lowerback 3.22797 -0.122431 -4.52104
upperback 1.40575 -0.319047 -0.27258
thorax -0.342095 -0.183778 2.2658
lowerneck -18.7446 -0.511484 -1.14344
upperneck 19.3181 -1.04928 2.51285
head 9.19073 -0.327073 0.908383
rclavicle -2.77056e-015 -5.36719e-015
rhumerus -31.1596 -3.07466 -83.2314
rradius 22.1538
rwrist 28.0452
rhand -26.1121 2.91721
rfingers 7.12502
rthumb 0.437448 -27.0621
lclavicle -2.77056e-015 -5.36719e-015
lhumerus -23.8001 2.91022 88.8733
lradius 19.6875
lwrist -17.1138
lhand -26.4198 1.99616
lfingers 7.12502
lthumb 0.140308 31.9759
rfemur -30.3613 -0.921131 19.8163
rtibia 46.4118
rfoot -14.3764 -13.1007
rtoes -17.283
lfemur -7.92993 -13.084 -28.9199
ltibia 21.1463
lfoot -14.5525 4.67925
ltoes -6.43271
1093
root 3.87521 16.4822 -2.62341 102.016 -93.1154 -98.3148
lowerback 3.13169 -0.117215 -4.54001
upperback 1.39911 -0.306752 -0.236581
thorax -0.295561 -0.178424 2.31257
lowerneck -18.7701 -0.490799 -1.10354
upperneck 19.2627 -1.01379 2.44723
head 9.17478 -0.314292 0.883746
rclavicle -4.21175e-015 -4.96962e-016
rhumerus -31.1751 -3.27729 -83.1537
rradius 22.0827
rwrist 28.181
rhand -26.2471 2.80541
rfingers 7.12502
rthumb 0.3071 -27.1741
lclavicle -4.21175e-015 -4.96962e-016
lhumerus -23.6975 2.45195 89.0516
lradius 20.0561
lwrist -16.5694
lhand -26.5388 1.89061
lfingers 7.12502
lthumb 0.0253529 31.8704
rfemur -30.3392 -0.293587 19.6983
rtibia 43.2534
rfoot -13.8912 -13.4124
rtoes -17.6097
lfemur -7.56378 -13.0649 -28.9482
ltibia 20.8521
lfoot -14.7756 4.73159
ltoes -6.32733
1094
root 3.88506 16.4828 -2.6245 101.156 -93.2003 -97.3296
lowerback 3.05545 -0.111445 -4.6435
upperback 1.38244 -0.298064 -0.241634
thorax -0.269983 -0.174648 2.36478
lowerneck -18.7561 -0.483283 -1.09127
upperneck 19.2083 -1.00944 2.46666
head 9.1534 -0.309152 0.888749
rclavicle 7.91411e-015 1.55052e-014
rhumerus -31.2384 -3.52559 -83.0667
rradius 22.0077
rwrist 28.3391
rhand -26.3453 2.73948
rfingers 7.12502
rthumb 0.212244 -27.2402
lclavicle 7.91411e-015 1.55052e-014
lhumerus -23.6457 2.01345 89.1917
lradius 20.4128
lwrist -16.1777
lhand -26.5769 1.88185
lfingers 7.12502
lthumb -0.0114073 31.8616
rfemur -30.2457 0.376903 19.4014
rtibia 40.0072
rfoot -13.4279 -13.6545
rtoes -17.8187
lfemur -7.08687 -12.9078 -29.088
ltibia 20.4361
lfoot -14.9272 4.7046
ltoes -6.55934
1095
root 3.89213 16.4913 -2.62518 100.691 -93.2201 -96.7427
lowerback 2.9736 -0.0928038 -4.62777
upperback 1.36131 -0.268539 -0.257524
thorax -0.248312 -0.159732 2.33837
lowerneck -18.7618 -0.496862 -1.0826
upperneck 19.1679 -1.04169 2.52104
head 9.14142 -0.317325 0.901588
rclavicle -4.84538e-016 1.02374e-014
rhumerus -31.3101 -3.96003 -82.9489
rradius 21.8915
rwrist 28.5454
rhand -26.4715 2.73924
rfingers 7.12502
rthumb 0.0903982 -27.2405
lclavicle -4.84538e-016 1.02374e-014
lhumerus -23.6142 1.55746 89.3016
lradius 20.7342
lwrist -15.8409
lhand -26.7239 1.75273
lfingers 7.12502
lthumb -0.153438 31.7324
rfemur -30.0765 1.14688 19.1182
rtibia 36.6696
rfoot -12.9435 -13.9295
rtoes -17.8052
lfemur -6.55473 -12.8456 -29.1561
ltibia 19.9667
lfoot -15.0999 4.73885
ltoes -6.90518
1096
root 3.89729 16.488 -2.62764 100.103 -93.2006 -96.0159
lowerback 2.85275 -0.106087 -4.60319
upperback 1.32836 -0.278762 -0.238225
thorax -0.213805 -0.164578 2.34429
lowerneck -18.7788 -0.48803 -1.05028
upperneck 19.1832 -1.03247 2.49158
head 9.14929 -0.313791 0.887412
rclavicle 8.83349e-015 9.54166e-015
rhumerus -31.3657 -4.247 -82.8498
rradius 21.7048
rwrist 28.9238
rhand -26.4992 2.63043
rfingers 7.12502
rthumb 0.0635533 -27.3493
lclavicle 8.83349e-015 9.54166e-015
lhumerus -23.6146 1.30569 89.3744
lradius 21.0627
lwrist -15.5543
lhand -26.8229 1.71607
lfingers 7.12502
lthumb -0.249066 31.6957
rfemur -29.762 2.12236 18.7947
rtibia 33.339
rfoot -12.7776 -14.2391
rtoes -17.6112
lfemur -5.99615 -12.7573 -29.1645
ltibia 19.3519
lfoot -15.1521 4.59944
ltoes -6.57835
1097
root 3.90127 16.488 -2.63104 99.0919 -93.2138 -94.837
lowerback 2.68143 -0.0903504 -4.59841
upperback 1.29563 -0.248391 -0.246175
thorax -0.153857 -0.14977 2.3319
lowerneck -18.8228 -0.497236 -1.02663
upperneck 19.2455 -1.05408 2.49095
head 9.17917 -0.321916 0.880703
rclavicle -2.13694e-015 6.36111e-015
rhumerus -31.4441 -4.48688 -82.8057
rradius 21.6081
rwrist 28.9746
rhand -26.4644 2.40786
rfingers 7.12502
rthumb 0.0972394 -27.5719
lclavicle -2.13694e-015 6.36111e-015
lhumerus -23.5922 1.13234 89.4113
lradius 21.3176
lwrist -15.4771
lhand -26.9105 1.77007
lfingers 7.12502
lthumb -0.333601 31.7496
rfemur -29.4891 3.32069 18.3397
rtibia 30.0551
rfoot -12.3775 -14.8767
rtoes -17.7717
lfemur -5.42429 -12.6072 -29.2066
ltibia 18.7028
lfoot -15.2091 4.49075
ltoes -6.42897
